<svg width="50.000000" height="50.000000" viewBox="0 0 50 50" fill="none" xmlns="http://www.w3.org/2000/svg" xmlns:xlink="http://www.w3.org/1999/xlink">
	<desc>
			Created with Pixso.
	</desc>
	<defs/>
	<path id="Vector" d="M33.33 50L33.33 41.66C37.94 41.66 41.66 37.94 41.66 33.33L49.99 33.33C49.99 42.55 42.52 50 33.33 50Z" fill="#FFD11A" fill-opacity="1.000000" fill-rule="nonzero"/>
	<path id="Vector" d="M33.33 50L33.33 41.66C28.72 41.66 25 37.94 25 33.33L16.66 33.33C16.66 42.55 24.13 50 33.33 50Z" fill="#FFD11A" fill-opacity="1.000000" fill-rule="nonzero"/>
	<path id="Vector" d="M0 33.33L8.33 33.33C8.33 37.94 12.05 41.66 16.66 41.66L16.66 50C7.47 50 0 42.55 0 33.33Z" fill="#FFD11A" fill-opacity="1.000000" fill-rule="nonzero"/>
	<path id="Vector" d="M0 33.33L8.33 33.33C8.33 28.72 12.05 25 16.66 25L16.66 16.66C7.47 16.66 0 24.13 0 33.33Z" fill="#FFD11A" fill-opacity="1.000000" fill-rule="nonzero"/>
	<path id="Vector" d="M16.66 0L16.66 8.33C12.05 8.33 8.33 12.05 8.33 16.66L0 16.66C0 7.47 7.47 0 16.66 0Z" fill="#FFD11A" fill-opacity="1.000000" fill-rule="nonzero"/>
	<path id="Vector" d="M16.66 0L16.66 8.33C21.27 8.33 25 12.05 25 16.66L33.33 16.66C33.33 7.47 25.86 0 16.66 0Z" fill="#FFD11A" fill-opacity="1.000000" fill-rule="nonzero"/>
	<path id="Vector" d="M50 16.66L41.66 16.66C41.66 12.05 37.94 8.33 33.33 8.33L33.33 0C42.52 0 50 7.47 50 16.66Z" fill="#FFD11A" fill-opacity="1.000000" fill-rule="nonzero"/>
	<path id="Vector" d="M50 16.66L41.66 16.66C41.66 21.27 37.94 25 33.33 25L33.33 33.33C42.52 33.33 50 25.88 50 16.66Z" fill="#FFD11A" fill-opacity="1.000000" fill-rule="nonzero"/>
</svg>
